<svg xmlns="http://www.w3.org/2000/svg" width="499" height="499" viewBox="0 0 499 499">
<g>
<path d="M 497.16 220.00 C497.86,226.60 498.55,232.00 498.71,232.00 C498.87,232.00 499.00,179.80 499.00,116.00 L 499.00 499.00 L 498.85 379.75 C498.77,315.17 498.55,263.46 498.36,263.46 C498.35,263.46 498.35,263.47 498.35,263.50 C495.00,292.02 492.39,304.69 485.39,326.28 C474.11,361.10 454.09,392.97 425.53,421.54 C388.86,458.25 346.01,479.69 289.50,489.61 C275.22,492.11 237.02,492.14 221.00,489.65 C174.34,482.41 137.37,466.84 103.50,440.15 C92.61,431.57 70.27,408.67 60.68,396.26 C55.91,390.07 52.00,384.85 52.00,384.64 C52.00,384.44 49.69,380.77 46.86,376.48 C39.21,364.88 27.51,339.97 22.45,324.51 C13.85,298.26 10.83,277.91 10.85,246.50 C10.87,215.90 14.67,192.42 23.87,165.99 C41.12,116.46 77.51,69.17 120.27,40.72 C152.75,19.12 193.91,5.09 236.50,1.11 C241.91,0.61 196.51,0.22 122.75,0.14 L 0.00 0.00 L 499.00 0.00 L 383.75 0.18 C322.04,0.28 273.39,0.50 273.39,0.68 C273.39,0.68 273.43,0.69 273.50,0.69 C290.47,1.82 314.62,6.84 332.00,12.86 C390.03,32.96 441.24,77.15 468.89,131.00 C473.26,139.52 478.18,149.88 479.81,154.00 C488.45,175.88 495.24,201.68 497.16,220.00 ZM 111.69 422.15 C119.21,429.75 125.54,435.79 125.75,435.59 C127.03,434.30 122.64,405.90 118.31,387.50 C116.04,377.88 115.22,375.94 111.74,372.00 C105.95,365.45 91.00,342.54 91.00,340.22 C91.00,337.74 93.34,335.73 95.70,336.18 C96.68,336.37 99.40,339.44 101.74,343.01 C104.08,346.58 105.99,349.20 106.00,348.84 C106.00,348.48 104.65,345.18 103.00,341.50 C101.35,337.82 100.00,333.75 100.00,332.44 C100.00,329.32 103.24,327.52 106.10,329.05 C107.84,329.98 108.44,329.82 109.65,328.09 C111.49,325.47 115.46,325.39 117.24,327.94 C117.99,329.00 120.15,333.73 122.03,338.44 C123.92,343.15 125.73,347.00 126.05,347.00 C126.37,347.00 127.44,344.41 128.43,341.25 C130.60,334.31 131.56,333.00 134.50,333.00 C139.12,333.00 139.43,334.97 136.98,348.75 C135.70,355.93 134.78,360.38 134.66,364.86 C134.42,373.38 137.06,381.99 145.61,409.76 C146.25,411.85 146.93,414.05 147.64,416.37 C148.12,417.94 149.39,417.07 155.48,411.02 C161.64,404.91 162.85,403.15 163.33,399.60 C164.77,389.10 159.91,374.01 153.00,367.50 C149.40,364.11 146.00,358.07 146.00,355.08 C146.00,350.97 152.86,350.28 154.28,354.24 C154.52,354.93 154.99,355.26 155.32,354.96 C155.65,354.66 154.80,350.89 153.43,346.58 C151.14,339.37 151.07,338.55 152.48,336.39 C153.33,335.09 155.22,333.73 156.68,333.37 C160.34,332.45 161.76,334.46 168.07,349.48 C170.95,356.33 173.66,361.71 174.09,361.44 C174.53,361.17 175.19,358.92 175.56,356.43 C176.57,349.70 180.85,346.71 184.01,350.52 C185.31,352.08 185.24,353.71 183.06,374.00 C182.50,379.23 182.32,387.51 182.68,392.42 L 183.31 401.34 L 195.31 414.17 C201.91,421.23 207.69,427.00 208.16,427.00 C210.83,427.00 206.16,389.58 200.85,368.50 C198.13,357.69 192.43,340.04 188.90,331.50 C186.83,326.50 185.06,323.86 182.69,322.25 C172.25,315.16 143.00,284.97 143.00,281.29 C143.00,278.28 145.91,275.00 148.57,275.00 C150.22,275.00 153.87,277.56 159.76,282.84 C164.57,287.15 169.12,291.43 169.87,292.34 C171.38,294.17 174.00,294.58 174.00,292.99 C174.00,291.73 158.14,271.34 154.62,268.08 C149.38,263.22 152.81,254.73 159.36,256.37 C160.66,256.70 166.14,261.81 171.55,267.73 C176.95,273.66 182.17,279.38 183.16,280.44 C185.79,283.31 186.10,282.10 184.39,275.57 C182.61,268.74 183.74,264.35 187.53,263.40 C192.04,262.27 193.59,264.43 199.99,280.73 C205.65,295.16 206.24,297.39 206.94,307.00 C207.55,315.38 208.36,319.11 210.96,325.50 C217.36,341.23 224.34,360.77 229.55,377.50 C232.58,387.25 235.10,393.83 235.45,392.94 C235.79,392.08 235.94,374.30 235.78,353.44 L 235.50 315.50 L 228.09 299.69 C221.06,284.71 206.44,257.10 195.22,237.64 C192.41,232.76 189.82,227.46 189.47,225.85 C188.24,220.26 193.45,215.89 199.53,217.42 C202.36,218.13 203.40,219.64 219.96,247.07 C232.93,268.56 238.59,274.91 247.00,277.41 C254.04,279.50 256.81,279.42 263.46,276.93 C271.10,274.07 275.27,268.95 291.12,243.00 C298.35,231.18 305.18,220.49 306.30,219.25 C310.60,214.52 319.02,217.96 318.98,224.42 C318.95,227.74 317.29,230.99 303.08,255.50 C293.50,272.02 279.35,300.24 274.52,312.47 L 271.76 319.44 L 272.13 356.72 C272.34,378.14 272.88,393.87 273.40,393.70 C273.89,393.54 274.91,390.95 275.66,387.95 C277.83,379.28 286.49,353.66 292.03,339.50 C301.56,315.18 301.99,313.67 302.07,304.77 C302.14,297.22 302.64,295.20 307.82,281.59 C312.17,270.16 314.15,266.20 316.30,264.61 C318.87,262.70 319.30,262.66 321.80,264.05 C325.03,265.86 325.77,270.19 323.94,276.72 C323.27,279.10 322.97,281.30 323.26,281.60 C323.56,281.89 328.89,276.49 335.11,269.60 C347.84,255.48 350.44,253.99 354.75,258.30 C358.33,261.88 357.47,263.93 347.27,276.05 C336.26,289.14 334.00,292.05 334.00,293.13 C334.00,295.39 337.33,293.17 347.00,284.48 C353.09,279.01 358.38,275.04 359.60,275.02 C362.89,274.99 365.51,278.64 365.12,282.73 C364.92,284.84 335.58,314.87 329.16,319.54 C322.51,324.38 321.40,326.06 317.02,337.94 C309.57,358.15 302.97,387.22 301.01,408.50 C300.41,415.10 299.75,421.96 299.56,423.75 C299.37,425.54 299.53,427.00 299.91,427.00 C300.59,427.00 324.94,402.71 325.06,401.91 C326.09,394.97 325.83,374.15 324.60,364.76 C323.75,358.30 323.32,352.33 323.64,351.50 C324.29,349.79 328.34,348.48 329.93,349.46 C330.50,349.81 331.69,352.55 332.56,355.55 C333.43,358.55 334.52,361.00 334.98,361.00 C335.44,361.00 337.96,355.60 340.58,349.00 C345.59,336.39 347.81,333.00 351.04,333.00 C353.48,333.00 357.00,336.41 356.99,338.75 C356.99,339.71 356.09,343.42 355.00,347.00 C352.46,355.31 352.50,355.82 355.41,353.08 C358.11,350.55 360.73,350.62 362.39,353.27 C363.75,355.45 361.34,359.99 352.95,371.05 C347.83,377.79 347.10,379.36 346.11,385.74 C345.50,389.67 345.00,395.28 345.00,398.22 C345.00,403.52 345.04,403.59 352.47,410.97 C356.58,415.05 360.24,418.09 360.61,417.72 C361.63,416.70 374.02,374.08 374.62,369.50 C374.92,367.25 374.46,362.87 373.57,359.50 C370.78,349.00 369.46,336.36 370.95,334.56 C374.18,330.66 377.88,333.61 380.56,342.20 C381.54,345.34 382.66,347.71 383.06,347.46 C383.46,347.22 385.45,342.85 387.48,337.76 C389.52,332.67 391.65,327.94 392.21,327.25 C393.81,325.31 397.73,325.77 399.35,328.09 C400.52,329.76 401.20,329.97 402.75,329.13 C405.38,327.73 409.00,330.28 409.00,333.54 C409.00,334.88 407.73,338.58 406.19,341.77 C400.60,353.32 401.02,354.11 407.43,344.10 C412.40,336.36 413.22,335.62 415.92,336.47 C418.70,337.36 419.20,339.71 417.37,343.31 C415.07,347.82 403.51,364.56 398.58,370.50 C396.30,373.25 393.87,376.80 393.18,378.38 C390.10,385.45 381.38,432.06 382.71,434.31 C383.26,435.23 405.22,414.26 408.83,409.37 C411.11,406.30 411.12,406.14 409.44,402.89 C407.98,400.06 407.81,397.75 408.31,387.81 C408.63,381.34 409.39,375.15 409.98,374.03 C411.23,371.70 416.13,371.24 417.84,373.30 C418.43,374.02 419.05,378.63 419.21,383.55 C419.44,390.71 419.80,392.50 421.00,392.50 C422.15,392.50 422.62,390.82 423.00,385.40 C423.56,377.41 424.97,375.00 429.06,375.00 C432.44,375.00 432.98,375.75 433.84,381.57 L 434.50 386.04 L 441.25 379.94 C444.96,376.58 448.00,373.24 448.00,372.51 C448.00,371.78 445.96,369.90 443.47,368.34 C440.98,366.78 438.75,364.60 438.53,363.50 C438.31,362.40 437.84,356.10 437.51,349.50 C435.37,307.99 416.00,265.35 385.22,234.44 C369.86,219.01 351.14,205.96 329.25,195.43 C323.06,192.45 318.00,189.62 318.00,189.14 C318.00,188.65 320.52,185.76 323.61,182.70 C329.33,177.02 339.14,171.19 346.76,168.94 C351.94,167.40 353.24,165.98 352.82,162.31 C352.51,159.63 352.26,159.50 347.33,159.54 C343.20,159.57 340.18,160.56 332.33,164.45 C324.02,168.57 321.23,170.63 314.27,177.77 L 306.05 186.21 L 295.60 183.59 C279.15,179.48 270.52,178.68 249.00,179.30 C220.82,180.11 200.11,185.02 176.50,196.46 C157.62,205.62 143.81,215.47 126.58,232.06 C114.54,243.66 109.45,246.46 102.23,245.46 C86.33,243.27 75.10,236.47 68.74,225.19 C65.42,219.31 64.23,218.47 60.50,219.41 C54.83,220.83 59.45,232.72 69.02,241.33 C75.94,247.55 84.98,251.83 95.39,253.79 C100.12,254.68 104.00,255.84 104.00,256.35 C104.00,256.86 101.59,261.16 98.65,265.89 C90.34,279.28 87.61,284.62 82.75,297.00 C75.44,315.63 71.02,337.58 70.98,355.47 C70.98,359.89 70.64,363.97 70.23,364.55 C69.83,365.12 67.25,366.88 64.50,368.44 C61.75,370.01 59.28,371.50 59.00,371.75 C58.72,372.01 62.10,375.53 66.50,379.58 L 74.50 386.94 L 75.04 381.86 C75.55,376.99 77.63,373.97 80.44,374.02 C83.35,374.06 84.45,376.28 85.47,384.18 C86.26,390.39 86.91,392.50 88.02,392.50 C89.19,392.50 89.60,390.48 90.00,382.83 C90.28,377.51 90.72,372.95 91.00,372.70 C92.50,371.34 95.84,371.16 97.49,372.37 C100.72,374.73 102.25,397.20 99.50,402.00 C98.71,403.38 98.05,405.36 98.04,406.42 C98.01,407.57 103.45,413.84 111.69,422.15 ZM 109.55 165.45 C116.81,167.26 125.14,166.67 132.89,163.78 C140.77,160.83 150.87,150.69 153.84,142.71 C156.76,134.89 156.80,123.21 153.93,115.54 C151.03,107.79 143.52,99.87 135.19,95.77 C129.01,92.73 127.81,92.50 118.49,92.50 C109.16,92.50 107.98,92.73 101.78,95.79 C94.04,99.60 87.98,105.84 84.11,114.00 C81.87,118.73 81.50,120.83 81.50,129.00 C81.50,137.20 81.86,139.28 84.16,144.18 C89.27,155.07 98.29,162.63 109.55,165.45 ZM 172.30 84.88 C171.98,86.19 172.12,87.08 172.61,86.86 C173.10,86.64 176.89,84.73 181.04,82.61 L 188.58 78.77 L 196.88 82.94 C203.56,86.30 205.07,86.76 204.66,85.30 C204.38,84.31 203.59,80.21 202.91,76.20 L 201.66 68.90 L 207.91 62.59 L 207.99 62.51 C211.41,59.06 213.12,57.33 212.77,56.33 C212.41,55.30 209.89,55.04 204.82,54.50 C201.23,54.11 197.83,53.51 197.27,53.15 C196.71,52.79 194.50,49.00 192.35,44.71 L 188.44 36.92 L 184.52 44.96 C180.39,53.44 180.33,53.48 172.50,54.45 C166.73,55.17 163.99,55.38 163.67,56.37 C163.41,57.19 164.82,58.55 167.55,61.18 C167.94,61.56 168.35,61.95 168.79,62.38 L 175.26 68.67 L 174.07 75.58 C173.42,79.39 172.62,83.57 172.30,84.88 ZM 441.38 270.83 L 440.71 275.17 L 448.93 271.04 L 457.15 266.90 L 464.71 270.98 C468.87,273.23 472.41,274.92 472.59,274.74 C472.76,274.57 472.29,270.62 471.53,265.96 L 470.15 257.50 L 476.69 250.85 L 483.24 244.21 L 473.98 242.94 L 464.71 241.68 L 461.19 233.84 C459.25,229.53 457.38,226.00 457.03,226.00 C456.68,226.00 454.67,229.54 452.56,233.88 L 448.72 241.75 L 439.86 242.97 C434.99,243.63 431.00,244.38 431.00,244.64 C431.00,244.90 433.75,247.65 437.12,250.77 L 443.24 256.43 L 442.64 261.47 C442.31,264.23 441.74,268.45 441.38,270.83 ZM 260.68 266.94 C256.88,268.37 250.17,268.21 246.45,266.59 C242.41,264.83 238.34,259.86 236.84,254.87 C235.46,250.26 236.74,243.55 239.77,239.52 C245.83,231.44 257.52,229.90 265.47,236.15 C271.26,240.71 273.83,251.59 270.59,257.80 C268.70,261.43 264.13,265.63 260.68,266.94 ZM 223.75 165.92 C225.96,167.21 226.71,167.23 228.91,166.05 C230.40,165.25 230.81,163.16 231.37,153.30 C232.92,126.03 240.72,104.74 254.62,89.79 C259.45,84.60 259.78,83.52 257.35,80.83 C254.48,77.66 251.31,78.58 246.21,84.04 C236.38,94.58 227.69,112.88 224.05,130.73 C221.30,144.25 221.13,164.39 223.75,165.92 ZM 270.83 163.52 C271.55,165.11 272.77,165.99 274.23,165.98 C277.36,165.96 278.18,165.23 281.46,159.50 C291.95,141.21 302.43,133.39 323.69,128.02 C328.30,126.85 329.82,124.40 328.02,121.04 C325.91,117.09 313.00,119.27 300.92,125.61 C289.03,131.86 279.69,141.77 272.32,155.98 C270.11,160.23 269.88,161.43 270.83,163.52 ZM 269.60 65.73 C274.31,68.43 278.33,68.59 282.98,66.25 C293.20,61.11 293.63,47.02 283.76,40.99 C277.18,36.98 268.18,39.37 263.99,46.24 C259.97,52.84 262.51,61.67 269.60,65.73 ZM 391.15 213.40 C393.55,215.07 395.02,214.60 400.76,210.31 C406.14,206.30 414.63,202.89 420.75,202.29 C423.91,201.98 427.29,201.32 428.25,200.83 C430.27,199.79 430.61,195.01 428.80,193.20 C425.90,190.30 411.77,192.88 402.00,198.08 C389.99,204.48 386.16,209.90 391.15,213.40 ZM 360.20 161.80 C360.86,162.46 362.57,163.00 364.00,163.00 C365.43,163.00 367.14,162.46 367.80,161.80 C369.33,160.27 369.47,129.76 367.96,126.93 C366.79,124.74 362.10,124.30 360.20,126.20 C358.52,127.88 358.52,160.12 360.20,161.80 ZM 306.22 105.44 C307.99,106.68 311.47,107.00 323.29,107.00 C331.61,107.00 338.98,106.55 340.07,105.96 C342.26,104.79 342.70,100.10 340.80,98.20 C339.12,96.52 306.88,96.52 305.20,98.20 C303.29,100.11 303.80,103.75 306.22,105.44 ZM 386.00 106.10 C388.48,106.43 396.09,106.77 402.92,106.85 C413.22,106.97 415.65,106.72 417.17,105.35 C419.42,103.31 419.52,100.66 417.43,98.57 C416.13,97.27 413.04,97.00 399.55,97.00 C381.71,97.00 380.57,97.35 381.18,102.69 C381.47,105.20 381.98,105.56 386.00,106.10 ZM 361.07 82.13 C362.53,84.85 367.07,84.27 368.62,81.16 C369.30,79.77 369.83,73.27 369.91,65.26 C370.01,54.57 369.71,51.21 368.49,49.35 C366.60,46.46 362.48,46.23 361.04,48.93 C359.66,51.51 359.68,79.54 361.07,82.13 ZM 328.24 149.33 C331.11,150.49 332.34,149.56 340.73,139.92 C352.37,126.54 352.79,125.70 349.51,122.42 C348.10,121.01 346.39,120.03 345.72,120.25 C344.04,120.80 328.16,138.87 326.38,142.26 C324.86,145.16 325.69,148.31 328.24,149.33 ZM 330.41 86.14 C333.65,88.27 336.88,90.00 337.58,90.00 C339.49,90.00 342.00,87.12 342.00,84.92 C342.00,82.84 341.19,82.04 330.50,73.51 C321.97,66.71 319.36,65.84 316.83,68.96 C315.82,70.20 315.00,71.81 315.00,72.53 C315.00,74.24 322.99,81.30 330.41,86.14 ZM 387.03 149.80 C388.16,151.01 389.93,152.00 390.97,152.00 C393.21,152.00 396.00,149.45 396.00,147.40 C396.00,144.99 384.67,125.87 382.32,124.31 C379.86,122.68 376.70,123.74 375.62,126.56 C374.93,128.35 383.72,146.25 387.03,149.80 ZM 379.57 83.43 C380.44,84.29 381.93,85.00 382.89,85.00 C383.85,85.00 388.76,80.79 393.82,75.63 C403.07,66.20 404.68,63.08 401.80,60.20 C399.02,57.42 396.22,59.02 387.12,68.54 C377.92,78.16 376.70,80.56 379.57,83.43 ZM 344.26 73.75 C344.80,74.44 345.76,75.00 346.40,75.00 C348.36,75.00 352.00,71.97 352.00,70.34 C352.00,68.14 344.71,52.98 342.21,50.00 C340.22,47.62 339.98,47.58 337.32,49.03 C335.78,49.88 334.36,51.36 334.18,52.32 C333.88,53.88 341.70,70.51 344.26,73.75 ZM 402.33 129.75 C406.63,132.64 410.78,135.00 411.55,135.00 C413.65,135.00 416.27,130.43 415.52,128.07 C414.72,125.56 402.16,117.00 399.27,117.00 C398.10,117.00 396.41,117.73 395.52,118.62 C392.52,121.63 394.12,124.24 402.33,129.75 ZM 58.50 207.77 C62.82,210.19 70.00,205.57 70.00,200.37 C70.00,197.42 65.02,192.00 62.33,192.00 C61.32,192.01 59.04,192.90 57.25,193.99 C54.50,195.67 54.00,196.55 54.03,199.74 C54.07,203.76 55.29,205.97 58.50,207.77 ZM 445.45 195.55 C447.00,197.09 449.05,198.00 451.00,198.00 C456.58,198.00 460.46,191.98 458.38,186.54 C457.68,184.72 452.94,182.00 450.47,182.00 C447.88,182.00 443.00,187.53 443.00,190.47 C443.00,191.92 444.10,194.19 445.45,195.55 ZM 357.45 108.55 C360.17,111.26 362.04,111.57 365.32,109.85 C368.25,108.31 368.97,107.05 368.97,103.50 C368.97,101.85 368.64,100.00 368.23,99.40 C367.23,97.90 363.48,96.00 361.52,96.00 C359.02,96.00 355.00,100.62 355.00,103.50 C355.00,104.93 356.10,107.20 357.45,108.55 ZM 399.02 90.71 C400.54,91.49 401.14,91.86 401.74,91.87 C402.22,91.88 402.70,91.65 403.64,91.21 C403.86,91.11 404.11,91.00 404.39,90.87 C405.75,90.25 407.40,88.45 408.05,86.88 C409.04,84.50 408.95,83.58 407.56,81.45 C406.64,80.04 405.23,78.64 404.44,78.34 C401.94,77.38 398.09,78.93 396.35,81.59 C394.24,84.82 395.43,88.90 399.02,90.71 ZM 344.20 148.80 C347.43,152.03 352.90,148.41 351.49,143.96 C350.72,141.53 346.49,140.35 344.49,142.01 C342.70,143.50 342.54,147.14 344.20,148.80 Z" fill="rgb(47,47,128)" data-index="0" style="opacity: 1;"></path>

</g>
</svg>